<svg version="1.1" id="Layer_1" xmlns="http://www.w3.org/2000/svg" xmlns:xlink="http://www.w3.org/1999/xlink" x="0px" y="0px"
	 width="100%" viewBox="0 0 176 208" enable-background="new 0 0 176 208" xml:space="preserve">
<path fill="#000000" opacity="1.000000" stroke="none" 
	d="
M126.572189,141.644470 
	C119.372147,145.604218 115.029732,143.608429 113.653336,136.131851 
	C112.984383,132.498123 112.385841,128.488922 107.773102,128.037415 
	C104.749435,127.741463 102.011772,132.484512 102.038979,137.365189 
	C102.071449,143.193100 102.233177,149.020615 102.373932,154.847473 
	C102.452446,158.097366 101.524231,161.092545 100.213295,164.005112 
	C96.962830,171.226791 91.971657,173.743195 85.099426,171.627762 
	C78.437569,169.577057 74.851753,163.628754 76.056465,156.395508 
	C76.684875,152.622543 77.468323,148.871643 78.301254,145.137421 
	C79.289139,140.708527 77.775475,136.898788 75.425949,133.356277 
	C73.684692,130.730881 71.060364,129.748459 68.000778,130.632568 
	C65.871590,131.247818 63.738609,131.429169 61.575935,131.278259 
	C54.212193,130.764481 50.113380,124.313477 52.651913,117.401192 
	C54.079777,113.513191 57.121185,110.840073 59.614323,107.736374 
	C62.644756,103.963768 62.061832,101.740585 57.540565,100.373245 
	C53.277290,99.083923 48.898380,97.973312 48.219807,92.680496 
	C47.506813,87.119194 50.710857,83.593567 55.218498,81.065910 
	C59.359501,78.743835 59.712212,75.920586 57.153107,72.023033 
	C53.550301,66.535896 53.599731,62.703163 56.740608,58.761681 
	C59.907757,54.787228 66.138580,53.164978 71.235481,55.049690 
	C72.478813,55.509445 73.796776,55.976963 74.825249,56.771309 
	C78.949242,59.956474 81.855255,58.833027 84.832771,54.870060 
	C89.181702,49.081799 92.362526,48.602341 98.454041,52.543861 
	C102.512367,55.169796 106.108124,56.689384 110.671539,53.289421 
	C113.324547,51.312809 116.719521,51.872078 119.647324,53.717258 
	C121.337105,54.782211 122.998703,55.911777 124.770241,56.823231 
	C129.355972,59.182579 132.810349,57.844009 134.558884,52.956493 
	C136.422836,47.746349 136.757126,42.212357 137.603790,36.799446 
	C138.378433,31.847065 140.328400,27.783934 145.256393,26.030903 
	C148.608215,24.838560 151.649033,26.071064 153.532944,29.036488 
	C156.380676,33.519001 155.944412,38.293911 153.643692,42.831451 
	C152.686035,44.720184 151.042389,46.270710 149.658142,47.931229 
	C147.689789,50.292427 146.328415,52.842773 146.241089,56.037533 
	C146.157288,59.103024 147.221588,60.750809 150.525467,60.712299 
	C155.708649,60.651875 159.110703,63.152843 160.210480,68.277824 
	C161.477203,74.180763 159.750092,78.031616 154.532990,80.754417 
	C151.189484,82.499382 148.241928,84.432007 149.626770,88.751068 
	C150.989731,93.001846 153.530823,96.067123 158.679504,95.722206 
	C165.135468,95.289719 170.541336,97.167618 173.846756,103.206177 
	C175.883316,106.926689 175.817474,110.553329 173.212585,113.973007 
	C170.795959,117.145523 167.476028,117.774048 163.806107,116.913208 
	C161.540604,116.381805 159.327362,115.622993 157.099411,114.937790 
	C155.347855,114.399086 153.533813,113.553307 151.929535,115.090530 
	C150.173462,116.773247 150.140701,118.848091 150.782394,121.105492 
	C151.873215,124.942841 153.024658,128.783966 153.756104,132.697250 
	C154.704819,137.773056 152.660370,141.641846 148.548615,143.437759 
	C144.448563,145.228561 140.409225,143.938293 137.177032,139.805374 
	C131.775391,132.898422 131.775391,132.898422 126.572189,141.644470 
M145.496933,84.274933 
	C146.406982,81.188850 148.522934,79.146622 151.304810,77.758530 
	C154.658142,76.085281 157.433304,73.964554 156.401291,69.706696 
	C155.431488,65.705482 152.469437,64.173325 148.504211,64.313431 
	C145.080292,64.434418 143.353882,62.568657 142.639160,59.391975 
	C141.263733,53.278812 143.204926,48.210621 147.567566,44.005173 
	C150.234634,41.434212 151.956894,38.551083 151.599304,34.764427 
	C151.384628,32.491413 150.370331,30.347275 148.149231,29.686604 
	C145.883926,29.012785 144.545273,30.993109 143.431335,32.647552 
	C142.215622,34.453159 141.643997,36.506813 141.200897,38.673664 
	C140.041336,44.344372 140.526123,50.331966 137.757294,55.700481 
	C134.556076,61.907379 128.833527,63.800045 122.708344,60.469654 
	C121.542061,59.835518 120.417686,59.099365 119.357780,58.299267 
	C116.396683,56.063972 113.551270,55.513840 110.266777,57.923660 
	C106.410423,60.753056 102.581757,60.023094 98.731880,57.381474 
	C92.066879,52.808239 91.997780,52.908958 86.586929,59.037590 
	C82.441841,63.732555 78.779938,64.199417 73.516602,60.664875 
	C71.706490,59.449318 69.895317,58.365231 67.613853,58.201157 
	C64.154633,57.952377 61.338104,59.126461 59.398129,61.936478 
	C57.469681,64.729797 58.790829,67.207970 60.390369,69.754967 
	C64.877441,76.899834 64.094147,80.050804 56.688129,84.931046 
	C54.026493,86.684937 51.816689,88.668701 52.303875,92.122673 
	C52.777660,95.481628 55.758488,95.704918 58.327835,96.397308 
	C65.394165,98.301529 67.356224,103.610970 63.185658,109.701111 
	C61.590981,112.029770 59.660320,114.125572 57.993862,116.408592 
	C56.097202,119.006981 55.190254,121.878387 57.396744,124.677376 
	C59.550144,127.409019 62.357056,128.130722 65.871948,127.119423 
	C73.217178,125.006073 76.967133,126.858330 80.461708,133.667114 
	C82.803131,138.229111 82.561401,143.002350 81.836578,147.820404 
	C81.342117,151.107239 80.444260,154.348328 80.153427,157.647491 
	C79.662888,163.211899 82.758018,167.589676 87.667625,168.401611 
	C92.848679,169.258423 95.184402,165.760773 96.920753,161.745621 
	C99.606010,155.536194 99.199707,149.040771 98.294876,142.570648 
	C97.876595,139.579651 97.487411,136.614365 98.093086,133.638947 
	C99.288719,127.765327 103.652008,123.598061 108.359589,123.712173 
	C112.915016,123.822601 116.454041,127.868034 117.197533,134.181381 
	C117.485565,136.627136 117.634987,139.011047 120.574883,139.521500 
	C123.609116,140.048355 124.606827,137.643600 125.448868,135.469849 
	C126.600380,132.497223 128.129578,129.968796 131.634796,129.765244 
	C135.292953,129.552841 137.390503,131.928177 138.994171,134.835831 
	C140.563232,137.680740 142.151703,140.779160 146.151398,139.444550 
	C150.265640,138.071716 149.976791,134.392197 149.583954,131.047791 
	C149.354828,129.097214 148.619583,127.186760 147.962524,125.310616 
	C147.127213,122.925552 146.591232,120.522980 146.706863,117.979187 
	C146.983185,111.900002 150.322693,109.216743 156.217728,110.544228 
	C158.642242,111.090195 161.046432,111.824348 163.364624,112.719528 
	C166.173599,113.804214 168.501999,113.791351 170.307114,110.980377 
	C172.066345,108.240860 171.203156,105.861572 169.377457,103.680038 
	C166.565536,100.320045 162.547607,99.728691 158.537766,99.414124 
	C149.419846,98.698845 145.366791,94.365753 145.496933,84.274933 
z"/>
</svg>