<svg version="1.1" id="Layer_1" xmlns="http://www.w3.org/2000/svg" xmlns:xlink="http://www.w3.org/1999/xlink" x="0px" y="0px"
	 width="100%" viewBox="0 0 169 193" enable-background="new 0 0 169 193" xml:space="preserve">
<path fill="none" opacity="1.000000" stroke="#000000" stroke-linecap="round" stroke-linejoin="round" stroke-width="3.000000"
	d="
M146.500000,59.500000 
	C144.037384,60.198326 141.575256,60.652725 139.459381,62.452240 
	C133.647507,67.395111 123.708763,66.044334 120.324493,57.570091 
	C118.116104,52.040245 117.169510,45.972111 113.529991,40.978146 
	C108.072685,33.489910 99.164627,31.071890 91.958107,34.921574 
	C88.497452,36.770233 87.047119,39.206615 86.948692,42.998669 
	C86.840385,47.171177 86.433487,51.344475 85.971542,55.496834 
	C85.519203,59.562943 82.569550,61.240871 78.995773,61.979565 
	C71.570793,63.514317 64.673859,61.580666 58.005207,58.488773 
	C55.131386,57.156334 52.075394,56.221294 48.996281,56.082550 
	C42.058350,55.769928 38.073994,59.856911 37.911613,63.996532 
	C37.731449,68.589546 40.345890,72.141914 48.003075,72.971619 
	C51.661133,73.367996 55.310375,72.957199 59.045666,73.796852 
	C62.129257,74.490005 63.535862,76.179184 64.421883,78.529449 
	C65.360611,81.019531 62.917122,82.221107 61.446472,83.435158 
	C59.322395,85.188637 56.968063,86.818565 54.450615,87.883224 
	C52.883610,88.545929 51.778484,89.562157 50.469860,90.455864 
	C48.695107,91.667923 48.559162,93.529228 49.108704,94.958191 
	C49.996941,97.267845 52.491093,97.589821 54.464046,96.897537 
	C56.783798,96.083565 58.916428,94.886612 61.500687,94.981232 
	C66.016869,95.146591 68.432571,98.894386 65.924171,102.446449 
	C63.969753,105.214035 61.454170,107.627785 58.974300,109.972824 
	C54.133041,114.550858 50.499035,119.659187 49.416107,126.486694 
	C48.772346,130.545380 49.816784,135.687607 52.499996,137.500000 
	C54.781609,139.041122 60.155483,137.843338 62.972733,134.973236 
	C64.460205,133.457870 66.072723,131.841187 66.885254,129.950684 
	C67.690239,128.077728 68.838638,126.487167 70.068291,125.058792 
	C72.379257,122.374374 74.838020,119.061226 78.974815,120.100266 
	C83.051804,121.124283 83.670036,124.643890 84.192093,128.473816 
	C84.516266,130.852066 85.323280,133.586487 87.466125,135.537201 
	C90.563881,138.357208 94.576874,139.282486 97.409286,136.410538 
	C104.346199,129.376801 110.769341,130.616684 118.101311,135.858276 
	C122.077095,138.700546 127.491798,139.573959 131.912384,136.857437 
	C136.827621,133.836945 138.215973,128.885651 137.108948,122.979576 
	C136.206726,118.166176 134.387268,113.556816 134.398438,108.499779 
	C134.408676,103.855652 136.643631,101.216423 140.513657,99.531380 
	C142.097733,98.841660 143.804352,98.226059 145.504883,98.046188 
	C154.059265,97.141380 158.398682,90.476799 158.891983,80.994377 
	C159.089050,77.206223 159.260498,73.399239 158.182388,69.450203 
	C156.515610,63.344864 152.951355,60.320175 147.000000,59.500000 
"/>
<path fill="none" opacity="1.000000" stroke="#000000" stroke-linecap="round" stroke-linejoin="round" stroke-width="2.000000"
	d="
M58.000000,28.500000 
	C54.340782,31.864313 55.455864,36.034630 57.146992,39.426716 
	C59.723324,44.594364 64.812134,47.365810 70.035843,49.408340 
	C72.021179,50.184639 73.632843,49.149830 73.544167,46.498524 
	C73.495422,45.040920 73.129173,43.799896 71.984329,43.023098 
	C66.238686,39.124561 63.354919,32.680573 58.500000,28.000000 
"/>
<path fill="none" opacity="1.000000" stroke="#000000" stroke-linecap="round" stroke-linejoin="round" stroke-width="3.000000"
	d="
M44.500000,140.000000 
	C42.163937,141.587860 39.387486,142.650375 39.906746,146.512543 
	C40.255981,149.110062 41.857010,149.392334 43.476196,148.918640 
	C47.000763,147.887512 47.625309,143.638428 45.000000,140.000000 
"/>
<path fill="none" opacity="1.000000" stroke="#000000" stroke-linecap="round" stroke-linejoin="round" stroke-width="3.000000"
	d="
M129.000000,40.000000 
	C123.175903,45.544468 123.391228,52.434532 129.500000,56.000000 
	C133.179260,58.147442 144.909698,54.369110 145.927216,50.480953 
	C146.688705,47.571133 145.220352,45.097588 142.474670,44.067513 
	C138.237503,42.477882 133.833328,41.333336 129.500000,40.000000 
"/>
<path fill="none" opacity="1.000000" stroke="#000000" stroke-linecap="round" stroke-linejoin="round" stroke-width="2.000000"
	d="
M27.000000,68.000000 
	C23.648064,69.086304 19.618504,69.269112 18.919025,73.972130 
	C21.747839,74.945732 30.205776,73.094658 30.879547,70.961945 
	C31.681431,68.423721 29.609900,67.899559 27.500000,68.000000 
"/>
<path fill="none" opacity="1.000000" stroke="#000000" stroke-linecap="round" stroke-linejoin="round" stroke-width="3.000000"
	d="
M86.000000,143.000000 
	C83.402420,144.157166 81.339180,145.938385 82.083473,148.979568 
	C82.813026,151.960541 85.507912,153.565674 88.035461,154.934525 
	C89.365730,155.654953 90.492378,154.532501 91.528389,153.529312 
	C93.180527,151.929489 93.625359,149.733078 92.869232,148.059067 
	C91.713715,145.500839 90.183167,142.695221 86.500000,143.000000 
"/>
</svg>