<svg version="1.1" id="Layer_1" xmlns="http://www.w3.org/2000/svg" xmlns:xlink="http://www.w3.org/1999/xlink" x="0px" y="0px"
	 width="100%" viewBox="0 0 144 224" enable-background="new 0 0 144 224" xml:space="preserve">
<path fill="#000000" opacity="1.000000" stroke="none" 
	d="
M102.135406,47.175011 
	C108.426460,51.551281 109.437103,55.072449 106.518700,61.350128 
	C105.676537,63.161686 104.789383,64.952606 103.905334,66.744339 
	C102.817917,68.948280 102.176773,71.033646 104.324493,73.106842 
	C106.359146,75.070885 108.194221,74.155304 110.225983,73.185516 
	C118.840416,69.073761 128.674759,74.885567 129.254227,84.396141 
	C129.470306,87.942543 128.588165,90.737076 125.168114,92.772232 
	C120.075867,95.802452 120.103897,98.589912 124.750153,102.335098 
	C125.786957,103.170837 126.878380,103.938629 127.919510,104.769211 
	C134.457993,109.985405 135.160492,117.935562 128.838196,123.199181 
	C123.375397,127.747238 122.146255,132.682938 124.579300,139.078064 
	C127.039177,145.543716 126.936295,151.715851 122.245346,157.397568 
	C118.078110,162.444992 112.396507,163.714447 106.713417,160.334305 
	C104.145729,158.807083 101.663078,157.082672 99.351883,155.191086 
	C95.851761,152.326416 92.963684,153.028915 90.369591,156.318573 
	C88.722290,158.407547 87.224205,160.613586 85.601257,162.722519 
	C81.097115,168.575409 74.951447,168.879150 69.882462,163.472839 
	C68.518364,162.017960 67.386230,160.345764 66.023903,158.889023 
	C62.327511,154.936462 59.305927,155.311859 56.535633,160.032639 
	C55.609840,161.610275 54.872086,163.300781 53.910648,164.854477 
	C50.596432,170.210312 46.167244,171.726685 40.751820,169.440063 
	C35.521088,167.231430 33.769604,162.893524 35.556705,156.589813 
	C36.855145,152.009781 39.463047,148.158417 42.330120,144.459091 
	C46.694305,138.828064 46.660515,138.388992 41.292137,134.182358 
	C35.286644,129.476501 34.986130,125.217979 40.257622,119.522591 
	C46.271156,113.025482 46.210960,108.575401 39.482956,102.594093 
	C35.764099,99.287979 31.511642,96.588089 27.563898,93.532028 
	C21.573999,88.895073 19.623825,82.679642 21.904303,75.836067 
	C24.532198,67.949913 32.387642,65.119286 39.507095,69.436523 
	C42.697044,71.370918 45.255184,73.892952 47.456463,76.895737 
	C48.920208,78.892433 50.653069,80.716759 52.427929,82.452080 
	C53.695694,83.691605 55.342754,84.151550 56.990276,83.073601 
	C58.602295,82.018883 58.850800,80.357002 58.486584,78.636528 
	C58.005184,76.362534 57.147423,74.148605 56.860283,71.857628 
	C56.419491,68.340691 57.241287,65.010574 60.665245,63.324142 
	C64.028908,61.667404 67.128853,62.884365 69.833809,65.260834 
	C75.238518,70.009224 77.118538,69.611137 80.244247,63.028522 
	C80.885689,61.677670 81.369507,60.252445 81.938583,58.866680 
	C85.895058,49.232262 91.448563,45.913387 102.135406,47.175011 
M82.093246,67.498093 
	C79.856918,71.349281 77.177597,74.451370 72.108284,72.540520 
	C70.013878,71.751045 68.937477,69.650574 67.382233,68.162834 
	C66.005257,66.845604 64.460014,65.704514 62.492844,66.704987 
	C60.390095,67.774406 60.010483,69.800529 60.501644,71.875465 
	C61.151596,74.621201 62.273579,77.250221 62.248825,80.149597 
	C62.205463,85.229202 59.316143,87.798744 54.268845,87.230492 
	C51.010384,86.863632 48.917854,84.748306 46.912678,82.472191 
	C44.605602,79.853394 42.835590,76.794014 40.099106,74.519081 
	C33.093102,68.694740 26.364822,70.913246 24.728590,79.823914 
	C23.922861,84.211792 26.353720,87.544731 29.563126,90.131004 
	C33.450687,93.263771 37.689690,95.960899 41.571877,99.099762 
	C50.197254,106.073631 50.795143,114.226982 43.464256,122.330383 
	C40.105442,126.043129 40.221081,127.965637 43.982487,130.946136 
	C51.104416,136.589478 51.431210,139.945541 45.624191,147.106323 
	C42.880642,150.489471 40.463448,154.109177 39.350235,158.365936 
	C38.525551,161.519394 39.031799,164.424850 42.433697,165.921005 
	C45.773472,167.389801 48.313427,165.921829 50.188541,163.264343 
	C51.621902,161.232925 52.634785,158.910370 53.940189,156.782028 
	C57.305904,151.294525 63.286816,150.526901 67.805550,155.059723 
	C69.564354,156.824020 70.992645,158.915115 72.725792,160.708206 
	C75.789902,163.878342 79.384514,163.797409 82.157890,160.409973 
	C83.839211,158.356415 85.071640,155.938629 86.721451,153.855301 
	C91.146049,148.268082 95.604256,147.572556 101.461342,151.479523 
	C103.677193,152.957611 105.740486,154.664642 107.958649,156.138962 
	C112.009262,158.831223 115.339584,158.357651 118.631172,154.886826 
	C122.433578,150.877350 122.379646,146.279907 121.016685,141.351013 
	C118.707962,133.002014 118.524391,125.435982 126.750412,119.511932 
	C130.975845,116.468956 130.413193,112.051636 126.404228,108.398163 
	C124.562614,106.719872 122.388153,105.404533 120.563309,103.710587 
	C116.171112,99.633446 116.605713,93.973526 121.452454,90.530411 
	C126.454689,86.976830 126.895966,83.742126 123.026718,78.990631 
	C119.660042,74.856308 116.806946,74.283516 111.648468,76.962669 
	C108.225861,78.740273 104.940895,79.029861 101.892532,76.419319 
	C98.747429,73.725929 98.005547,70.324165 99.596962,66.486855 
	C100.232681,64.953972 100.937157,63.441341 101.725433,61.981644 
	C103.605057,58.501041 105.616180,54.788780 101.723434,51.635479 
	C97.962250,48.588730 94.138802,50.515942 90.686890,52.808907 
	C88.076744,54.542717 86.816032,57.317974 85.559578,60.057499 
	C84.521461,62.320953 83.469498,64.578056 82.093246,67.498093 
z"/>
</svg>