<svg version="1.1" id="Layer_1" xmlns="http://www.w3.org/2000/svg" xmlns:xlink="http://www.w3.org/1999/xlink" x="0px" y="0px"
	 width="100%" viewBox="0 0 176 176" enable-background="new 0 0 176 176" xml:space="preserve">
<path fill="#000000" opacity="1.000000" stroke="none" 
	d="
M143.279007,121.372635 
	C135.499176,125.923859 127.129845,124.852333 121.081429,118.833328 
	C120.254906,118.010818 119.482086,117.126335 118.599556,116.369492 
	C114.901932,113.198471 112.693970,113.467896 110.324501,117.756203 
	C108.053917,121.865547 105.174469,124.483307 100.126740,124.409630 
	C96.045692,124.350075 93.029068,123.221275 91.467567,119.135559 
	C90.834068,117.477974 89.968658,115.549355 87.777901,115.505981 
	C85.600777,115.462868 85.533653,117.643250 84.721107,118.995743 
	C81.477623,124.394592 76.021301,125.267723 71.274353,121.133125 
	C71.023552,120.914673 70.838989,120.558868 70.553780,120.450165 
	C63.160038,117.632233 56.105511,114.115532 48.984478,110.693756 
	C44.937756,108.749229 40.200985,112.736435 35.928894,114.493492 
	C29.706768,117.052589 23.558014,119.475510 16.642435,117.008980 
	C12.374169,115.486633 9.135876,113.069008 8.839175,108.314461 
	C8.543066,103.569420 10.945445,100.020805 14.998345,97.658028 
	C19.997137,94.743828 25.324596,95.347252 30.531368,96.756027 
	C33.713154,97.616913 36.350651,97.770287 38.573349,94.911667 
	C40.835052,92.002892 38.642498,89.943512 37.335663,87.728683 
	C32.606319,79.713409 33.102859,75.571060 39.814320,69.322388 
	C41.983612,67.302673 42.569038,65.211304 42.029812,62.208485 
	C40.484253,53.601559 42.591343,51.335827 51.288994,51.607441 
	C53.527241,51.677338 55.822075,51.679802 57.130718,49.612400 
	C58.648796,47.214134 57.077950,45.145180 55.762024,43.221336 
	C54.824261,41.850353 53.631149,40.655365 52.675190,39.295242 
	C50.111229,35.647285 50.120293,31.765017 52.164062,27.965519 
	C53.795628,24.932339 56.480919,23.473759 60.027874,23.708811 
	C64.513046,24.006039 67.486443,26.404755 69.106529,30.416958 
	C69.906204,32.397385 69.994469,34.659805 70.749664,36.664661 
	C71.964035,39.888508 73.975250,40.712250 76.831085,38.210537 
	C83.114433,32.706303 84.635750,32.531399 91.747757,36.380569 
	C92.933601,37.022377 94.117477,37.930225 95.467621,37.477665 
	C100.866051,35.668133 105.561546,37.457626 110.262688,39.923126 
	C113.840477,41.799488 117.427025,41.252491 120.593040,38.838127 
	C123.102859,36.924175 125.312111,34.609459 127.857742,32.750576 
	C132.275864,29.524359 139.366913,30.289917 142.459946,34.122375 
	C145.338776,37.689442 144.664825,43.136318 140.630341,47.205170 
	C138.526260,49.327171 136.077240,51.102695 133.898941,53.156593 
	C130.206772,56.637886 130.272369,59.839787 133.868759,63.445896 
	C136.584488,66.168976 140.207336,66.975708 143.595718,68.326538 
	C146.377853,69.435684 149.440842,70.499054 149.604019,74.208214 
	C149.770844,78.000671 147.538116,80.333405 144.380524,82.027916 
	C141.842697,83.389839 139.083359,83.921852 136.328491,84.595528 
	C130.712265,85.968925 127.613762,89.559227 131.050522,95.527237 
	C133.900848,100.476883 138.076141,103.890335 141.726074,107.936638 
	C146.474854,113.201118 146.872269,116.286926 143.279007,121.372635 
M79.962601,40.569275 
	C74.055901,45.791897 68.706673,44.247128 66.645523,36.706947 
	C66.206856,35.102222 66.040359,33.400909 65.433678,31.868746 
	C63.995697,28.237169 60.134773,26.414408 57.499477,28.214466 
	C54.277946,30.414957 53.406357,33.369354 55.780663,36.789467 
	C56.727764,38.153736 57.889046,39.368954 58.841515,40.729927 
	C60.970802,43.772434 63.136982,46.920860 61.189056,50.830654 
	C59.171432,54.880341 55.429935,55.354740 51.383842,55.250103 
	C45.586067,55.100163 44.515575,56.301434 45.790974,62.010990 
	C46.687210,66.023163 45.691742,69.174652 42.857910,71.981079 
	C37.155190,77.628647 36.983475,79.189178 41.206978,86.188377 
	C43.341099,89.725044 45.086918,93.188164 42.261829,97.276268 
	C39.450394,101.344620 35.549397,101.773033 31.200357,101.073257 
	C28.571655,100.650284 25.970533,99.986580 23.328049,99.733307 
	C18.148350,99.236855 13.311567,102.854614 13.172117,107.124977 
	C13.027758,111.545677 16.057508,113.637497 22.324879,113.807640 
	C28.085409,113.964035 32.981369,111.435188 37.951927,109.136177 
	C41.813213,107.350243 46.060787,105.513252 49.975086,106.904533 
	C57.751354,109.668488 65.510544,112.849648 72.624176,116.981888 
	C77.551476,119.844109 78.736603,120.478882 81.587471,115.695557 
	C85.260880,109.532127 90.408356,109.486122 94.171806,115.583076 
	C98.385338,122.409203 102.890472,122.438690 106.941360,115.666702 
	C110.589493,109.568001 116.078941,108.719185 121.385918,113.482040 
	C122.745781,114.702484 123.881638,116.181023 125.283340,117.344742 
	C129.328156,120.702827 138.491928,121.576660 140.570358,118.391411 
	C144.235107,112.775108 138.079117,110.811417 135.795624,107.427277 
	C135.613556,107.157455 135.331680,106.950317 135.079926,106.732864 
	C131.626114,103.749634 128.801346,100.265617 127.100571,96.012733 
	C124.016289,88.300285 126.448044,83.567200 134.493744,81.354111 
	C137.371460,80.562546 140.421875,80.305763 143.036530,78.698151 
	C144.503403,77.796249 145.732361,76.632004 145.624329,74.731300 
	C145.519730,72.890862 143.973694,72.421967 142.587982,71.827179 
	C138.625900,70.126541 134.418259,68.908943 131.219666,65.746643 
	C125.366508,59.959881 125.562996,55.015724 131.883408,49.732906 
	C134.052094,47.920242 136.343597,46.203480 138.244110,44.135185 
	C140.194809,42.012295 141.867401,39.427654 139.391830,36.606041 
	C136.798645,33.650360 133.553909,33.463207 130.416336,35.566837 
	C128.080917,37.132648 126.112488,39.234848 123.895912,40.991264 
	C119.734444,44.288803 114.995430,45.986603 109.939293,43.794712 
	C104.995613,41.651569 100.349434,39.387901 94.713249,41.212589 
	C92.582909,41.902283 90.505585,40.492542 88.726288,39.217953 
	C85.694496,37.046162 82.927086,36.900112 79.962601,40.569275 
z"/>
</svg>