<svg version="1.1" id="Layer_1" xmlns="http://www.w3.org/2000/svg" xmlns:xlink="http://www.w3.org/1999/xlink" x="0px" y="0px"
	 width="100%" viewBox="0 0 304 352" enable-background="new 0 0 304 352" xml:space="preserve">
<path fill="#000000" opacity="1.000000" stroke="none" 
	d="
M248.304382,47.659122 
	C255.841400,57.483383 254.782928,69.083557 245.269684,78.415428 
	C240.724594,82.873886 238.260132,87.956932 237.529190,94.156181 
	C236.777985,100.527222 238.507828,102.658463 244.876343,102.727783 
	C253.717865,102.824020 259.539703,107.681000 261.760956,116.814064 
	C263.536804,124.115669 259.524628,131.875687 252.056702,135.583328 
	C241.946655,140.602722 240.085495,148.499344 246.855026,157.327927 
	C249.164810,160.340271 252.083725,161.742142 255.879196,161.746826 
	C260.198273,161.752151 264.532257,161.534409 268.812286,162.572098 
	C277.786438,164.747910 283.440674,170.541580 285.763336,179.163147 
	C288.601471,189.697952 279.714752,198.825012 268.824585,197.075653 
	C264.184723,196.330322 259.896942,194.436417 255.479599,192.957062 
	C252.749283,192.042694 249.877060,189.933273 247.158173,192.827866 
	C244.299515,195.871246 243.477539,199.523285 244.939621,203.477493 
	C247.256332,209.742950 249.065720,216.126541 249.881989,222.767303 
	C250.064270,224.250259 250.234726,225.752136 250.203568,227.240967 
	C250.044357,234.851837 246.816711,239.865952 240.967224,241.729523 
	C234.319550,243.847412 227.635681,241.666901 223.307388,235.785934 
	C221.535187,233.378006 220.181274,230.662720 218.414871,228.249969 
	C215.289459,223.980896 211.474060,224.366226 209.245026,229.109619 
	C208.540298,230.609283 208.117310,232.238770 207.505630,233.785202 
	C205.271255,239.434021 200.121582,242.710999 194.628876,242.010269 
	C188.195602,241.189575 184.136673,236.999237 183.706116,230.384644 
	C183.451508,226.472824 182.569000,222.801620 180.550964,219.461197 
	C177.602112,214.580032 172.655136,213.789017 168.275146,217.488739 
	C164.901001,220.338867 163.443466,224.031647 163.207733,228.461884 
	C162.665924,238.643814 164.917236,248.692642 164.366592,258.880280 
	C163.991043,265.828552 162.347244,272.321686 159.181992,278.499359 
	C155.169937,286.329742 149.224945,290.922302 140.052597,290.125214 
	C131.319702,289.366302 123.872734,283.062500 121.031357,274.585205 
	C118.585304,267.287354 120.875267,260.466400 122.575844,253.523560 
	C124.202736,246.881577 125.622887,240.217712 123.789986,233.332977 
	C122.832466,229.736359 121.329536,226.382141 119.081924,223.494827 
	C115.888489,219.392456 111.628960,218.269379 106.577759,219.769043 
	C100.909058,221.452011 95.220093,222.381516 89.568420,219.469559 
	C79.758270,214.415024 76.857117,205.167419 82.234848,195.501801 
	C84.851089,190.799530 88.682419,187.034195 92.251221,183.077530 
	C98.659538,175.972763 97.136612,170.657303 87.911026,168.409546 
	C81.337463,166.807938 75.011208,164.767227 73.898712,156.931168 
	C72.741043,148.776993 76.491501,142.779327 83.424126,138.633301 
	C83.710136,138.462250 83.991302,138.283081 84.274200,138.106842 
	C93.795166,132.175690 94.355896,129.435699 87.938240,120.203552 
	C81.803101,111.377861 83.555534,101.995453 92.356384,95.973129 
	C100.643867,90.302071 108.881226,90.751846 117.146568,95.929459 
	C126.947739,102.069145 128.607452,101.755013 135.775375,92.316261 
	C142.004349,84.113922 148.285950,83.054291 156.894775,88.769150 
	C158.282028,89.690056 159.660675,90.628197 160.997147,91.620506 
	C166.021484,95.351044 170.980560,95.557549 176.111191,91.711189 
	C181.737381,87.493317 187.515381,87.709846 193.270050,91.585602 
	C195.341339,92.980606 197.450760,94.318863 199.529816,95.702499 
	C208.503235,101.674400 217.332977,98.284691 219.561554,87.658989 
	C221.268219,79.521652 222.503525,71.272331 223.613861,63.027752 
	C224.329803,57.711884 226.246155,53.100040 229.749313,49.100494 
	C235.413315,42.633881 241.119583,42.102398 248.304382,47.659122 
M92.988319,117.469887 
	C93.709869,118.590034 94.468422,119.688263 95.147026,120.833847 
	C99.935966,128.918289 98.798256,134.679321 91.231705,140.238358 
	C89.356880,141.615768 87.301392,142.746307 85.337250,144.003311 
	C80.878220,146.856979 78.183098,150.827713 79.443748,156.176987 
	C80.616005,161.151199 84.931236,162.195862 89.456306,162.852158 
	C100.896362,164.511368 105.292397,174.915665 98.507454,184.265549 
	C95.772835,188.033905 92.468964,191.388092 89.717453,195.145554 
	C86.537224,199.488525 84.721199,204.340225 87.382591,209.595169 
	C90.077202,214.915695 95.090446,215.435104 100.294861,214.994949 
	C102.098900,214.842361 103.914314,214.402466 105.641808,213.839798 
	C112.983528,211.448547 118.672195,214.014511 123.352638,219.622681 
	C129.400970,226.869888 131.093430,235.357910 129.870529,244.456955 
	C128.940704,251.375305 127.415680,258.211731 126.380730,265.118378 
	C125.063576,273.908203 129.699188,281.428558 137.420395,283.426239 
	C146.157776,285.686859 151.206055,282.677124 155.352829,273.454285 
	C160.094879,262.907471 159.576965,252.004150 157.913239,241.078323 
	C156.841034,234.037064 156.430923,227.216370 158.970200,220.410385 
	C161.492020,213.651123 168.594101,208.397964 174.897949,208.827713 
	C180.972916,209.241867 186.872635,215.288300 188.220520,222.581863 
	C188.673904,225.035126 189.115738,227.514175 189.246033,229.998077 
	C189.453781,233.958755 192.186035,235.572113 195.328445,236.296555 
	C198.276703,236.976227 200.397751,235.063583 201.688477,232.504227 
	C202.659485,230.578796 203.336426,228.507324 204.206482,226.528198 
	C205.968567,222.519974 208.529083,219.249710 213.224030,218.866547 
	C218.068192,218.471191 221.390060,221.211060 223.901855,225.031555 
	C225.455276,227.394363 226.687225,229.980255 228.350937,232.255844 
	C230.390518,235.045517 233.080582,237.200012 236.800766,236.493973 
	C240.543030,235.783752 242.834076,233.194946 244.054718,229.626480 
	C244.950119,227.008835 244.612991,224.425308 244.216431,221.750488 
	C243.256836,215.278061 240.299835,209.378235 239.077271,202.992691 
	C236.804840,191.123596 244.743271,183.704529 256.258636,187.035049 
	C260.415588,188.237320 264.495544,189.703979 268.622162,191.013580 
	C274.527924,192.887802 278.348755,190.852295 280.107239,184.934753 
	C281.674988,179.658936 278.328461,173.262207 272.306671,170.322266 
	C267.563324,168.006439 262.419739,167.177551 257.226868,167.437790 
	C245.284363,168.036255 240.076172,160.743011 236.996750,149.878799 
	C234.831894,142.241150 238.856812,135.849472 248.070847,130.946426 
	C249.245285,130.321457 250.369400,129.602341 251.521545,128.935013 
	C254.580963,127.163025 255.718887,124.369560 255.800003,120.986374 
	C255.980972,113.438637 251.903763,109.048553 244.360016,109.006653 
	C239.791748,108.981277 235.558212,108.367012 233.350388,103.784782 
	C231.750580,100.464447 230.977966,96.895462 231.424225,93.116104 
	C232.326538,85.474686 235.765594,79.177177 241.471832,74.137871 
	C246.650482,69.564507 247.768265,63.754517 246.880859,57.325241 
	C246.456665,54.251995 245.294312,51.397255 241.989288,50.380489 
	C238.484360,49.302231 235.846909,51.007259 233.704117,53.615894 
	C231.550034,56.238224 230.112061,59.288013 229.486710,62.575294 
	C228.836090,65.995415 228.617523,69.500961 228.272858,72.975388 
	C227.547806,80.284508 226.576462,87.535126 223.281967,94.233383 
	C218.421188,104.116180 207.977402,107.302917 198.545670,101.740372 
	C196.109818,100.303772 193.746628,98.724266 191.458313,97.061417 
	C186.862991,93.722145 182.543594,93.384392 177.818222,97.118088 
	C172.080734,101.651489 165.962143,101.923073 159.894516,97.420708 
	C158.425369,96.330551 156.815720,95.431496 155.323563,94.370201 
	C147.996857,89.159142 144.304749,89.770630 139.098099,97.100952 
	C138.422821,98.051659 137.821320,99.062782 137.076477,99.954781 
	C131.094299,107.118813 123.883354,107.959824 116.426750,102.516754 
	C114.286667,100.954567 112.060593,99.396049 109.653496,98.336815 
	C104.105141,95.895271 96.761566,98.092712 92.536186,103.153931 
	C89.046509,107.333916 89.043594,111.242691 92.988319,117.469887 
z"/>
</svg>