<svg version="1.1" id="Layer_1" xmlns="http://www.w3.org/2000/svg" xmlns:xlink="http://www.w3.org/1999/xlink" x="0px" y="0px"
	 width="100%" viewBox="0 0 304 336" enable-background="new 0 0 304 336" xml:space="preserve">
<path fill="#000000" opacity="1.000000" stroke="none" 
	d="
M112.807678,270.337158 
	C104.245644,266.930054 102.123543,261.665802 105.514778,253.081924 
	C107.279121,248.616043 110.381584,244.775040 111.218956,239.836975 
	C111.732086,236.810974 111.827415,234.088272 109.299797,232.111862 
	C106.562416,229.971451 103.904320,231.501312 101.438148,232.956863 
	C100.011551,233.798859 98.803925,235.015198 97.369400,235.839767 
	C93.755707,237.916901 89.998184,238.045273 86.522095,235.678085 
	C82.994812,233.276016 81.748154,229.829880 82.925896,225.620407 
	C83.552277,223.381622 84.309715,221.160965 84.700325,218.879456 
	C85.185799,216.043793 85.369293,213.076904 82.465500,211.250427 
	C79.702286,209.512360 77.259346,211.084229 75.097672,212.587051 
	C71.409630,215.150955 67.980247,218.085220 64.310860,220.678009 
	C53.591045,228.252670 40.358253,223.379166 37.316750,210.639648 
	C35.791897,204.252686 38.459427,198.768188 42.428013,194.070663 
	C48.071552,187.390518 55.396591,183.773392 64.264648,183.688385 
	C68.275658,183.649933 72.302307,183.616211 76.114555,182.267258 
	C79.759521,180.977493 80.013931,178.971649 76.995590,176.575974 
	C75.111992,175.080917 72.819527,174.641632 70.526314,174.127090 
	C66.438255,173.209824 62.459751,172.045212 59.779900,168.376724 
	C56.244583,163.537170 55.948223,158.682343 59.077213,153.489136 
	C62.482502,147.837372 69.185501,144.207550 75.452324,145.073990 
	C78.746780,145.529495 81.986923,146.382812 85.282860,146.821671 
	C92.391960,147.768280 96.398743,142.555206 93.706688,135.854126 
	C91.654869,130.746750 87.756401,127.068855 83.632355,123.649712 
	C79.016594,119.822891 74.224030,116.206291 69.664566,112.315224 
	C60.482998,104.479637 55.823669,94.716743 58.838268,82.604698 
	C61.838573,70.550087 72.586075,66.060471 83.773148,71.489487 
	C93.147827,76.038948 98.399017,84.335434 103.526329,92.760635 
	C106.120453,97.023285 108.430161,101.459450 111.038391,105.712959 
	C112.936180,108.807884 115.581291,111.401543 119.433907,111.168198 
	C123.385384,110.928879 124.496933,107.368874 125.865143,104.302483 
	C127.016563,101.721947 128.144379,99.100990 129.605957,96.694260 
	C134.271515,89.011688 142.304916,88.907166 147.313980,96.465858 
	C149.239853,99.371986 150.625580,102.644470 152.627060,105.490044 
	C155.498474,109.572456 158.154526,109.743744 161.698944,106.350410 
	C163.257889,104.857918 164.566895,103.108063 166.052994,101.535156 
	C172.477188,94.735718 181.400513,95.666367 186.186234,103.633041 
	C186.870682,104.772423 187.455887,105.974258 188.042938,107.168861 
	C191.039658,113.266998 197.343704,113.792282 201.475784,108.344551 
	C205.187195,103.451416 206.629639,97.578362 208.755615,91.994888 
	C210.724869,86.822952 213.108902,81.895470 217.172531,77.978622 
	C220.797058,74.484993 224.917130,72.834747 229.905380,74.675949 
	C234.747467,76.463203 236.538574,80.405396 237.118561,85.146317 
	C238.191467,93.916298 235.355469,101.540375 230.278290,108.520317 
	C227.549469,112.271805 224.403427,115.774406 223.682846,120.665054 
	C223.345093,122.957283 223.462112,125.052536 225.184280,126.668320 
	C227.088623,128.455002 229.225739,127.760193 231.224609,126.729248 
	C235.489288,124.529671 239.811478,123.173935 244.640213,124.899307 
	C252.684692,127.773689 254.551300,136.123215 248.217392,141.800873 
	C246.005096,143.783951 243.263367,145.163513 240.895554,146.989975 
	C238.945923,148.493851 237.747513,150.594711 238.388504,153.111725 
	C238.990875,155.477081 241.248444,155.539108 243.211563,155.942642 
	C254.054962,158.171494 256.559998,165.354675 249.644455,174.049332 
	C246.745010,177.694702 242.794998,179.791473 238.881790,182.009125 
	C236.844513,183.163681 234.540985,184.347260 234.693680,187.103836 
	C234.840195,189.748779 237.011414,191.086761 239.171021,192.022049 
	C241.444260,193.006592 243.851974,193.694748 246.227386,194.426529 
	C252.783386,196.446182 256.188965,201.817261 254.838943,208.088806 
	C253.412186,214.716751 248.059814,218.212402 241.001724,217.073990 
	C239.857605,216.889465 238.757431,216.447906 237.621170,216.196472 
	C233.344696,215.250168 230.867966,217.778732 231.947449,222.080643 
	C233.472488,228.158173 237.766907,232.061523 242.784134,235.241226 
	C252.884293,241.642181 262.092560,248.875809 267.626678,259.887421 
	C270.792786,266.187225 271.400055,272.601990 268.853912,279.198730 
	C265.834076,287.022705 259.019806,290.092651 251.091736,287.385315 
	C245.096481,285.338043 240.286697,281.505707 235.845093,277.194946 
	C229.978149,271.500854 224.580597,265.387634 220.080536,258.520569 
	C219.081512,256.996063 217.984879,255.493118 216.708801,254.201996 
	C214.526993,251.994400 212.416229,248.781952 208.910919,249.743332 
	C205.550201,250.665100 206.470947,254.482986 205.810120,257.088318 
	C205.000870,260.278931 204.164490,263.324524 200.536606,264.291443 
	C196.713989,265.310303 193.302246,264.342651 190.374374,261.698578 
	C189.882172,261.254089 189.469406,260.722076 189.016006,260.234131 
	C187.253632,258.337402 185.738312,255.276077 182.617065,256.726013 
	C179.461136,258.192078 179.627274,261.564148 179.738525,264.616119 
	C180.185791,276.884369 183.771988,288.925507 182.186554,301.359924 
	C181.583344,306.090912 180.315964,310.523224 177.813339,314.499176 
	C172.967926,322.197113 164.100571,322.926178 158.104233,316.104156 
	C153.743774,311.143341 151.872116,305.243561 152.291687,298.588104 
	C152.794220,290.616699 153.150406,282.635925 153.550430,274.658234 
	C153.681931,272.035706 152.587982,270.078796 150.068192,269.208588 
	C145.846024,267.750458 143.940308,264.483826 142.544052,260.521759 
	C140.094284,253.570007 137.150787,252.840530 131.659454,257.856964 
	C128.842239,260.430511 126.356827,263.374542 123.790192,266.213287 
	C120.928040,269.378815 117.564186,271.155090 112.807678,270.337158 
M163.453613,112.290543 
	C156.546005,115.659073 151.264954,114.333672 147.183243,107.985802 
	C145.569550,105.476212 144.500443,102.617020 142.892563,100.102997 
	C139.921616,95.457741 135.913467,95.636459 133.374893,100.475540 
	C132.140106,102.829338 131.179825,105.327415 130.101196,107.762810 
	C125.275192,118.659264 116.751762,120.095856 108.717590,111.316841 
	C107.604851,110.100945 106.666061,108.692955 105.821960,107.269951 
	C102.594391,101.828857 99.620338,96.228691 96.209175,90.907440 
	C92.044624,84.410934 87.311584,78.474785 79.595337,75.675797 
	C72.803673,73.212181 66.485054,76.212646 64.388084,83.218063 
	C62.668209,88.963707 63.626732,94.296783 66.226479,99.617348 
	C69.542404,106.403618 75.664391,110.246231 81.262177,114.643272 
	C87.166229,119.280922 93.203468,123.784904 97.130531,130.359039 
	C100.399536,135.831543 101.495506,141.701904 97.781960,147.315109 
	C94.091705,152.893082 88.552940,153.874893 82.319595,152.215546 
	C79.749893,151.531494 77.136299,150.890717 74.501778,150.596954 
	C68.868637,149.968826 63.732910,153.876266 62.844379,159.222839 
	C62.054810,163.973984 65.239189,167.920624 71.057281,169.309448 
	C72.346550,169.617203 73.698845,169.652618 74.999321,169.923035 
	C81.240013,171.220673 85.429443,175.795319 84.885170,180.665894 
	C84.374100,185.239349 80.117622,188.133881 73.607918,188.329437 
	C72.608818,188.359451 71.607689,188.341614 70.609940,188.393250 
	C63.207596,188.776184 56.123734,190.116653 49.884583,194.551361 
	C43.451359,199.123993 40.944870,207.820190 44.670330,213.341660 
	C48.358261,218.807495 57.422482,219.209885 63.996735,214.163986 
	C64.916565,213.457962 65.677292,212.548523 66.557442,211.786087 
	C67.940117,210.588348 69.283432,209.322586 70.781174,208.284378 
	C75.728142,204.855240 80.948029,203.090271 86.579521,206.662582 
	C90.707344,209.281021 91.782150,214.678116 90.180183,221.612274 
	C89.483505,224.627853 86.411545,228.289169 90.022873,230.749405 
	C93.734772,233.278168 96.298981,229.250854 99.033508,227.391602 
	C102.733925,224.875610 106.530899,223.754654 110.739357,225.908768 
	C114.964554,228.071457 117.165565,231.558426 117.254478,236.341690 
	C117.301224,238.856979 117.188255,241.354568 116.164894,243.697128 
	C114.434456,247.658203 112.460983,251.525406 110.955070,255.568176 
	C109.859291,258.509918 108.758163,262.020508 112.355309,264.036530 
	C115.706528,265.914734 118.323601,263.918823 120.587227,261.369537 
	C123.127251,258.509003 125.622406,255.573685 128.436874,252.998550 
	C135.792007,246.268860 144.298798,248.467926 147.541702,257.919434 
	C148.578430,260.941010 149.914932,263.078430 153.269760,264.128265 
	C157.071808,265.318054 159.066849,268.433624 159.257629,272.510345 
	C159.319885,273.840546 159.290665,275.175323 159.292435,276.508026 
	C159.303528,284.833221 159.021698,293.132599 158.394119,301.449860 
	C157.871780,308.372406 162.519272,314.645020 167.144058,314.740753 
	C171.708313,314.835205 174.705139,310.005585 175.872894,302.541962 
	C177.264282,293.649017 175.733673,285.000610 174.989136,276.240204 
	C174.457260,269.981934 173.107361,263.670898 174.862427,257.373108 
	C175.864655,253.776764 177.830383,250.931503 181.584885,250.000229 
	C185.123260,249.122543 188.130493,250.464066 190.551819,253.124146 
	C191.785095,254.479004 192.879883,255.979935 194.226074,257.207855 
	C197.245239,259.961884 199.745956,259.080322 200.539001,255.027161 
	C200.760742,253.893845 200.652435,252.700073 200.772491,251.542007 
	C201.312653,246.331375 204.589554,243.479599 209.803696,243.661865 
	C215.314896,243.854477 219.065201,247.017059 222.158798,251.151779 
	C224.652328,254.484436 226.827744,258.065918 229.445679,261.292511 
	C235.539474,268.803131 241.866089,276.224426 250.765961,280.512878 
	C258.652863,284.313263 264.154236,280.623779 264.681610,271.774750 
	C264.824890,269.370697 264.199493,267.192139 263.327667,264.997559 
	C259.460815,255.263931 252.312637,248.525360 243.670410,243.058319 
	C237.730789,239.300919 232.195679,235.016403 228.112015,229.177658 
	C225.043488,224.790375 224.605591,217.537354 227.215805,214.050842 
	C230.573029,209.566513 235.144943,209.077835 240.239822,210.292572 
	C241.830780,210.671890 243.573868,210.908112 245.169495,210.675690 
	C249.181458,210.091278 250.778595,206.140717 248.507812,202.760056 
	C247.246628,200.882446 245.469467,199.789948 243.247055,199.245361 
	C240.005722,198.451080 236.863159,197.355621 234.058105,195.458221 
	C227.279800,190.873245 227.278809,182.792282 234.033035,178.181519 
	C237.316528,175.940063 241.112701,174.452225 243.792740,171.317032 
	C248.298615,166.045944 247.681290,163.900848 241.146088,161.853989 
	C237.105728,160.588531 232.963928,159.011108 232.116852,154.214081 
	C231.212189,149.090927 233.934219,145.252197 237.713074,142.153961 
	C239.768692,140.468613 242.169479,139.185654 244.129990,137.407455 
	C246.786102,134.998337 246.166809,132.207230 242.863770,130.786148 
	C239.571930,129.369873 236.754990,130.778320 233.866806,132.240784 
	C229.602020,134.400314 225.253021,135.050491 221.289062,131.581802 
	C217.406281,128.184143 216.282150,122.577324 218.298691,117.424500 
	C219.883820,113.374001 221.927872,109.604836 224.648544,106.159256 
	C229.094101,100.529190 231.964630,94.221123 231.564575,86.855499 
	C231.395050,83.734436 230.379150,80.815865 226.962830,79.829903 
	C223.579056,78.853348 221.611771,81.372116 220.020798,83.586090 
	C217.497879,87.096977 215.837677,91.126549 214.084274,95.098824 
	C211.670609,100.566940 210.148743,106.485832 206.597214,111.396088 
	C199.201599,121.621078 187.378540,120.341438 182.316330,108.853653 
	C182.114914,108.396584 181.959152,107.918678 181.745407,107.467880 
	C179.439804,102.605240 174.876312,101.553642 170.768860,105.122932 
	C168.386932,107.192787 166.284454,109.584236 163.453613,112.290543 
z"/>
</svg>